<svg xmlns="http://www.w3.org/2000/svg" width="452" height="240" viewBox="214 179 452 240" version="1.1" role="img" aria-label="آریا">
  <title>آریا</title>
  <g fill="#0077b6" fill-rule="evenodd">
    <!-- Rahmen oben -->
    <path d="M653.59 190.82 L226.11 190.82 L226.11 285.74 L232.66 285.74 L232.66 197.37 L647.05 197.37 L647.05 285.74 L653.59 285.74 Z"/>
    <!-- Rahmen unten -->
    <path d="M653.59 311.92 L647.05 311.92 L647.05 400.28 L232.66 400.28 L232.66 311.92 L226.11 311.92 L226.11 406.83 L653.59 406.83 Z"/>
    <!-- Buchstabe A (links) -->
    <path d="M341.68 210.88 L278.84 210.88 L239.2 361.01 L285.91 361.01 L291.92 334.45 L310.7 334.45 L310.7 361.01 L341.68 361.01 Z
             M310.41 241.09 L310.38 300.93 L298.81 300.93 Z"/>
    <!-- Buchstabe R -->
    <path d="M463.91 234.79 L461.08 230.37 L458.66 227.55 L454.95 224.07 L450.77 220.89 L446.06 218.18 L440.88 215.77 L437.93 214.77 L433.04 213.35 L427.92 212.23 L422.62 211.47 L417.08 211 L411.31 210.88 L348.23 210.88 L348.23 361.01 L395.88 361.01 L395.88 308.47 L402.06 308.47 L426.09 361.01 L477.34 361.01 L445.18 298.4 L446.06 297.87 L450.95 294.93 L455.25 291.63 L458.96 288.09 L462.14 284.21 L464.32 280.79 L466.44 276.08 L467.68 270.96 L468.15 265.54 L468.15 252.28 L468.09 249.93 L467.38 244.57 L466.03 239.5 Z
             M398.82 240.68 L410.19 240.68 L410.3 240.68 L415.61 241.62 L419.79 244.33 L420.79 245.45 L422.79 249.93 L423.44 255.7 L423.44 265.36 L423.44 265.48 L422.56 270.84 L419.65 275.22 L415.13 277.79 L409.72 278.67 L398.82 278.67 Z"/>
    <!-- Buchstabe I -->
    <path d="M483.88 210.88 L531.47 210.88 L531.47 361.01 L483.88 361.01 Z"/>
    <!-- Buchstabe A (rechts) -->
    <path d="M538.02 210.88 L600.86 210.88 L640.5 361.01 L593.79 361.01 L587.79 334.45 L569 334.45 L569 361.01 L538.02 361.01 Z
             M569.29 241.09 L569.32 300.93 L580.89 300.93 Z"/>
  </g>
</svg>
